<?xml version="1.0" encoding="UTF-8"?><svg id="a" xmlns="http://www.w3.org/2000/svg" viewBox="0 0 64 64"><defs><style>.b{fill:none;}.c{fill:#fff;}.d{fill:#283037;}.e{fill:#4da825;}</style></defs><rect class="b" width="64" height="64"/><g><path class="c" d="m56.1,13.07L35.9,1.07c-2.41-1.43-5.38-1.43-7.8,0L7.9,13.07c-2.41,1.43-3.9,4.08-3.9,6.94v23.99c0,2.86,1.49,5.51,3.9,6.94l20.2,11.99c1.21.72,2.55,1.07,3.9,1.07s2.69-.36,3.9-1.07l20.21-11.99c2.41-1.43,3.9-4.08,3.9-6.94v-23.99c0-2.86-1.49-5.51-3.9-6.94Z"/><path class="d" d="m56.1,13.07L35.9,1.07c-1.21-.72-2.55-1.07-3.9-1.07s-2.69.36-3.9,1.07L7.9,13.07c-2.41,1.43-3.9,4.08-3.9,6.94v23.99c0,2.86,1.49,5.51,3.9,6.94l20.2,11.99c1.21.72,2.55,1.07,3.9,1.07s2.69-.36,3.9-1.07l20.21-11.99c2.41-1.43,3.9-4.08,3.9-6.94v-23.99c0-2.86-1.49-5.51-3.9-6.94Zm-27.29,48.63l-20.2-11.99c-1.98-1.17-3.2-3.36-3.2-5.71v-23.99c0-2.35,1.23-4.54,3.2-5.71L28.81,2.3c.97-.58,2.07-.88,3.19-.88s2.22.3,3.19.88l20.21,11.99c1.67.99,2.79,2.7,3.1,4.62-.67-1.43-2.18-1.82-3.94-.79l-19.11,11.81c-2.38,1.39-4.14,2.96-4.14,5.83v23.55c0,1.72.69,2.84,1.76,3.16-.35.06-.7.1-1.06.1-1.12,0-2.22-.3-3.19-.88Z"/><path class="e" d="m50.81,46.31l-5.03,3.01c-.13.08-.23.17-.23.33v1.32c0,.16.11.23.24.15l5.11-3.11c.13-.08.15-.23.15-.39v-1.16c0-.16-.11-.23-.24-.15Z"/><path class="c" d="m40.09,35.23c.16-.08.3.02.3.23l.02,1.74c.73-.29,1.36-.37,1.94-.24.12.03.18.2.13.4l-.38,1.54c-.03.12-.1.23-.17.31-.03.03-.07.06-.1.07-.05.03-.1.03-.15.02-.26-.06-.88-.2-1.86.3-1.03.52-1.39,1.41-1.38,2.07,0,.79.41,1.03,1.82,1.06,1.87.03,2.67.85,2.69,2.73s-.97,3.83-2.47,5.04l.03,1.72c0,.21-.13.45-.3.53l-1.02.59c-.16.08-.3-.02-.3-.23l-.02-1.69c-.87.36-1.76.45-2.33.22-.11-.04-.15-.2-.11-.38l.37-1.56c.03-.12.09-.25.18-.32.03-.03.06-.05.1-.07.06-.03.12-.04.16-.02.61.2,1.39.11,2.14-.27.95-.48,1.59-1.45,1.58-2.42,0-.88-.48-1.24-1.64-1.25-1.47,0-2.84-.28-2.86-2.45-.02-1.78.91-3.63,2.37-4.8l-.02-1.74c0-.21.13-.45.3-.53l.99-.63Z"/></g></svg>